<svg width="24" height="24" viewBox="0 0 24 24" fill="none" xmlns="http://www.w3.org/2000/svg">
<path fill-rule="evenodd" clip-rule="evenodd" d="M24 6.51515C24 6.13636 23.8452 5.75758 23.5665 5.48485L21.4606 3.42424C21.1819 3.15152 20.7948 3 20.4077 3C20.0206 3 19.6335 3.15152 19.3548 3.42424L9.19742 13.3788L4.64516 8.90909C4.36645 8.63636 3.97935 8.48485 3.59226 8.48485C3.20516 8.48485 2.81806 8.63636 2.53935 8.90909L0.433548 10.9697C0.154839 11.2424 0 11.6212 0 12C0 12.3788 0.154839 12.7576 0.433548 13.0303L8.14452 20.5758C8.42323 20.8485 8.81032 21 9.19742 21C9.58452 21 9.97161 20.8485 10.2503 20.5758L23.5665 7.54545C23.8452 7.27273 24 6.89394 24 6.51515Z" fill="#99999A"/>
<mask id="mask0" mask-type="alpha" maskUnits="userSpaceOnUse" x="0" y="3" width="24" height="18">
<path fill-rule="evenodd" clip-rule="evenodd" d="M24 6.51515C24 6.13636 23.8452 5.75758 23.5665 5.48485L21.4606 3.42424C21.1819 3.15152 20.7948 3 20.4077 3C20.0206 3 19.6335 3.15152 19.3548 3.42424L9.19742 13.3788L4.64516 8.90909C4.36645 8.63636 3.97935 8.48485 3.59226 8.48485C3.20516 8.48485 2.81806 8.63636 2.53935 8.90909L0.433548 10.9697C0.154839 11.2424 0 11.6212 0 12C0 12.3788 0.154839 12.7576 0.433548 13.0303L8.14452 20.5758C8.42323 20.8485 8.81032 21 9.19742 21C9.58452 21 9.97161 20.8485 10.2503 20.5758L23.5665 7.54545C23.8452 7.27273 24 6.89394 24 6.51515Z" fill="white"/>
</mask>
<g mask="url(#mask0)">
<rect width="24" height="24" fill="#263746"/>
</g>
</svg>
